HIERARCHY
ROOT SpineBase
{
  OFFSET 0.000000 0.000000 0.000000
  CHANNELS 6 Xposition Yposition Zposition Zrotation Xrotation Yrotation
  JOINT SpineMid
  {
    OFFSET -0.000000 32.361188 0.000000
    CHANNELS 3 Zrotation Xrotation Yrotation
    JOINT SpineShoulder
    {
      OFFSET 0.214008 24.004588 -0.722550
      CHANNELS 3 Zrotation Xrotation Yrotation
      JOINT Neck
      {
        OFFSET 0.146657 7.933565 -0.572945
        CHANNELS 3 Zrotation Xrotation Yrotation
        JOINT Head
        {
          OFFSET -5.924655 13.918913 -0.774453
          CHANNELS 3 Zrotation Xrotation Yrotation
          End Site
          {
            OFFSET 0 0 0
          }
        }
      }
      JOINT ShoulderLeft
      {
        OFFSET -16.901517 -6.898041 6.616355
        CHANNELS 3 Zrotation Xrotation Yrotation
        JOINT ElbowLeft
        {
          OFFSET -1.499866 -26.590802 4.122847
          CHANNELS 3 Zrotation Xrotation Yrotation
          JOINT WristLeft
          {
            OFFSET -0.089369 -21.778674 -2.533707
            CHANNELS 3 Zrotation Xrotation Yrotation
            JOINT HandLeft
            {
              OFFSET 0.688030 -6.411434 -1.116977
              CHANNELS 3 Zrotation Xrotation Yrotation
              JOINT HandTipLeft
              {
                OFFSET 0.378596 -6.935277 -0.749532
                CHANNELS 3 Zrotation Xrotation Yrotation
                End Site
                {
                  OFFSET 0 0 0
                }
              }
              JOINT ThumbLeft
              {
                OFFSET 3.153975 0.054415 -4.304213
                CHANNELS 3 Zrotation Xrotation Yrotation
                End Site
                {
                  OFFSET 0 0 0
                }
              }
            }
          }
        }
      }
      JOINT ShoulderRight
      {
        OFFSET 14.929162 -3.752456 -9.121801
        CHANNELS 3 Zrotation Xrotation Yrotation
        JOINT ElbowRight
        {
          OFFSET 7.576991 -26.266144 -1.138718
          CHANNELS 3 Zrotation Xrotation Yrotation
          JOINT WristRight
          {
            OFFSET -0.942641 -24.121311 -5.799660
            CHANNELS 3 Zrotation Xrotation Yrotation
            JOINT HandRight
            {
              OFFSET -1.309940 -6.078431 -0.028595
              CHANNELS 3 Zrotation Xrotation Yrotation
              JOINT HandTipRight
              {
                OFFSET -0.444061 -6.569577 -0.664856
                CHANNELS 3 Zrotation Xrotation Yrotation
                End Site
                {
                  OFFSET 0 0 0
                }
              }
              JOINT ThumbRight
              {
                OFFSET 3.696358 -0.467633 -0.582621
                CHANNELS 3 Zrotation Xrotation Yrotation
                End Site
                {
                  OFFSET 0 0 0
                }
              }
            }
          }
        }
      }
    }
  }
  JOINT HipLeft
  {
    OFFSET -5.962972 -0.011760 -0.730938
    CHANNELS 3 Zrotation Xrotation Yrotation
    JOINT KneeLeft
    {
      OFFSET 3.057498 -35.490273 4.734906
      CHANNELS 3 Zrotation Xrotation Yrotation
      JOINT AnkleLeft
      {
        OFFSET 7.439446 -35.305426 6.208664
        CHANNELS 3 Zrotation Xrotation Yrotation
        JOINT FootLeft
        {
          OFFSET -3.309916 -4.786251 -11.534924
          CHANNELS 3 Zrotation Xrotation Yrotation
          End Site
          {
            OFFSET 0 0 0
          }
        }
      }
    }
  }
  JOINT HipRight
  {
    OFFSET 7.550531 1.766243 -6.441413
    CHANNELS 3 Zrotation Xrotation Yrotation
    JOINT KneeRight
    {
      OFFSET 8.049337 -33.638429 1.108791
      CHANNELS 3 Zrotation Xrotation Yrotation
      JOINT AnkleRight
      {
        OFFSET 3.745844 -36.345164 7.250644
        CHANNELS 3 Zrotation Xrotation Yrotation
        JOINT FootRight
        {
          OFFSET -3.395738 -5.670145 -8.752034
          CHANNELS 3 Zrotation Xrotation Yrotation
          End Site
          {
            OFFSET 0 0 0
          }
        }
      }
    }
  }
}
MOTION
Frames: 13
Frame Time: 0.033333
-66.912517 81.426984 324.475563 2.027923 0.423829 17.004552 0.142281 -0.265868 -16.941552 -0.048174 -0.251384 0.098358 -8.839510 1.827536 0.343224 0.000000 0.000000 0.000000 82.640143 61.933118 -54.726469 -156.849009 -40.874602 -114.161247 78.934081 63.360067 -56.677802 -64.372206 -66.377258 -44.408401 0.000000 0.000000 0.000000 0.000000 0.000000 0.000000 -49.402378 33.121969 29.459732 -109.298323 8.545755 -24.219264 4.026354 3.203109 -38.342377 -16.074521 -6.954555 13.665229 0.000000 0.000000 0.000000 0.000000 0.000000 0.000000 -7.016609 -1.425637 -17.889195 4.492921 1.817515 0.487408 3.811471 -6.036891 -5.297870 0.000000 0.000000 0.000000 -8.084118 0.354125 -17.561966 5.791556 1.656998 0.497978 8.202359 -29.339589 13.381803 0.000000 0.000000 0.000000
-67.006472 81.614567 324.382986 1.956971 0.444691 15.295156 0.189147 -0.304480 -15.232019 -0.032090 -0.233070 0.098021 -8.875401 1.493326 0.178950 0.000000 0.000000 0.000000 84.546304 61.792085 -56.077016 -158.555955 -39.620825 -114.932564 69.976234 63.099154 -49.144119 -67.104269 -65.256574 -46.497862 0.000000 0.000000 0.000000 0.000000 0.000000 0.000000 -49.364925 32.910488 29.269970 -108.062526 8.712679 -22.263769 3.187419 2.965319 -39.278177 -14.254694 -5.287218 15.748651 0.000000 0.000000 0.000000 0.000000 0.000000 0.000000 -6.835131 -2.079450 -16.220075 4.222143 2.175879 0.471793 5.372944 -9.767989 -6.864594 0.000000 0.000000 0.000000 -7.769641 0.318017 -15.782835 5.610796 1.345102 0.436111 8.319870 -29.470000 13.338349 0.000000 0.000000 0.000000
-67.058575 81.773190 324.276741 1.962809 0.443033 14.186300 0.221008 -0.349085 -14.120473 -0.020257 -0.221838 0.100798 -8.934446 1.168049 0.001292 0.000000 0.000000 0.000000 76.222601 60.716342 -48.294853 -151.935195 -45.359617 -110.249649 53.807874 59.757363 -34.944872 -63.243258 -63.200920 -42.153268 0.000000 0.000000 0.000000 0.000000 0.000000 0.000000 -49.277077 32.978390 29.248954 -107.105063 8.897862 -21.182755 1.376464 3.051968 -39.781765 -14.204969 -4.474941 18.678777 0.000000 0.000000 0.000000 0.000000 0.000000 0.000000 -6.751224 -2.512118 -15.137478 4.013501 2.487151 0.469124 8.256851 -17.795018 -9.820305 0.000000 0.000000 0.000000 -7.647060 0.313809 -14.632376 5.519501 1.169256 0.401018 8.600857 -30.116201 13.793825 0.000000 0.000000 0.000000
-67.043526 81.897317 324.117227 2.077899 0.448259 13.660112 0.218525 -0.406917 -13.589100 -0.014356 -0.216530 0.107016 -9.142301 0.873138 -0.177448 0.000000 0.000000 0.000000 76.141150 60.466508 -48.060963 -151.674972 -45.540747 -109.746838 50.577289 58.513089 -32.258132 -63.936605 -63.078963 -42.387046 0.000000 0.000000 0.000000 0.000000 0.000000 0.000000 -49.345101 32.973271 29.205376 -106.384620 9.017737 -20.247241 -0.342537 3.503553 -39.848994 -12.768599 -2.991755 21.331746 0.000000 0.000000 0.000000 0.000000 0.000000 0.000000 -6.931588 -2.758597 -14.647486 3.984858 2.732041 0.481019 11.505759 -28.459306 -13.009727 0.000000 0.000000 0.000000 -7.736648 0.194697 -14.126159 5.476686 1.233229 0.412210 11.623300 -34.974764 16.003947 0.000000 0.000000 0.000000
-67.024402 81.873423 324.037185 2.219083 0.362506 13.971902 0.206772 -0.427905 -13.894117 -0.003129 -0.191831 0.113905 -9.334034 0.726255 -0.294888 0.000000 0.000000 0.000000 76.165151 60.202361 -47.918036 -151.556275 -45.562958 -109.274976 49.160774 57.041008 -31.099942 -67.995785 -62.957441 -44.724196 0.000000 0.000000 0.000000 0.000000 0.000000 0.000000 -49.328769 32.874761 29.033473 -106.340380 8.919815 -19.759584 -1.358509 2.231776 -42.298353 -11.506080 -1.188818 23.721832 0.000000 0.000000 0.000000 0.000000 0.000000 0.000000 -7.040841 -2.546132 -14.935013 3.944246 2.686302 0.476654 12.492360 -31.656974 -14.662497 0.000000 0.000000 0.000000 -7.926242 0.212732 -14.465489 5.513023 1.391300 0.442883 11.191883 -33.645159 14.280960 0.000000 0.000000 0.000000
-67.041101 81.869459 324.017054 2.321658 0.241685 14.837767 0.212402 -0.443626 -14.752887 0.016307 -0.175598 0.121033 -9.461549 0.786703 -0.316982 0.000000 0.000000 0.000000 76.262887 59.950044 -47.849049 -151.651296 -45.344212 -108.903059 50.843439 56.784622 -32.490755 -72.755396 -63.184414 -48.047615 0.000000 0.000000 0.000000 0.000000 0.000000 0.000000 -49.239964 32.770636 28.829077 -106.510709 8.662868 -19.645220 -2.087889 1.562120 -43.590178 -11.170492 -0.945631 23.614936 0.000000 0.000000 0.000000 0.000000 0.000000 0.000000 -7.020514 -2.049118 -15.734715 3.875463 2.405675 0.453750 12.774637 -33.379208 -12.759008 0.000000 0.000000 0.000000 -7.933689 0.375318 -15.325899 5.431843 1.473036 0.456806 6.474054 -23.370607 8.533376 0.000000 0.000000 0.000000
-67.077515 81.886797 324.010143 2.429683 0.083512 15.499446 0.215134 -0.434186 -15.407143 0.039800 -0.155815 0.128126 -9.638824 0.975754 -0.281248 0.000000 0.000000 0.000000 76.263132 59.721162 -47.742053 -152.098552 -45.061285 -108.871874 51.636479 57.463365 -33.254084 -78.458725 -63.190765 -52.957252 0.000000 0.000000 0.000000 0.000000 0.000000 0.000000 -49.138640 32.510122 28.494462 -107.175161 8.334604 -19.418174 -1.239457 2.736199 -41.647933 -10.241533 -0.415904 23.829176 0.000000 0.000000 0.000000 0.000000 0.000000 0.000000 -6.932786 -1.613173 -16.326753 3.747719 2.142168 0.419054 11.307695 -29.191237 -9.267315 0.000000 0.000000 0.000000 -7.850480 0.592580 -15.958831 5.282067 1.486003 0.456442 3.925948 -15.704940 5.141608 0.000000 0.000000 0.000000
-67.152215 81.907430 324.051484 2.483477 -0.079078 16.292713 0.226827 -0.419881 -16.194431 0.053623 -0.140191 0.132571 -9.683557 1.231962 -0.204317 0.000000 0.000000 0.000000 76.317490 59.595341 -47.754307 -154.098200 -44.008104 -110.083793 52.526088 55.749622 -34.311541 -69.122182 -61.692991 -42.711626 0.000000 0.000000 0.000000 0.000000 0.000000 0.000000 -49.127138 32.273853 28.260395 -108.693203 8.038871 -19.763839 1.224953 4.078155 -39.059363 -10.279023 -2.697582 18.028402 0.000000 0.000000 0.000000 0.000000 0.000000 0.000000 -6.719136 -1.148395 -17.039436 3.577545 1.838120 0.378137 11.171621 -29.465264 -7.391770 0.000000 0.000000 0.000000 -7.615524 0.869653 -16.701514 4.720546 0.607174 0.293072 4.240207 -14.183087 4.688939 0.000000 0.000000 0.000000
-67.237596 81.933425 324.091459 2.518938 -0.235851 16.791236 0.232659 -0.389616 -16.688457 0.061182 -0.121480 0.134905 -9.635127 1.374545 -0.171303 0.000000 0.000000 0.000000 76.328125 59.547279 -47.788975 -152.861091 -44.482795 -109.060002 53.011380 55.253608 -34.433419 -67.809398 -61.178363 -41.140436 0.000000 0.000000 0.000000 0.000000 0.000000 0.000000 -49.028853 32.208132 28.140016 -109.146577 8.101065 -19.129652 2.156592 5.164484 -37.496283 -9.922023 -5.361302 10.544378 0.000000 0.000000 0.000000 0.000000 0.000000 0.000000 -6.507735 -0.800570 -17.473417 3.422088 1.592928 0.339134 11.270534 -30.059587 -6.547184 0.000000 0.000000 0.000000 -7.328105 1.149144 -17.137221 4.549529 0.262287 0.251591 1.912303 -6.675918 2.638018 0.000000 0.000000 0.000000
-67.314661 81.966295 324.132202 2.550836 -0.378396 16.919460 0.235888 -0.356930 -16.812782 0.066537 -0.100858 0.136464 -9.608085 1.575119 -0.104557 0.000000 0.000000 0.000000 76.377342 59.581984 -47.935731 -148.282126 -46.357701 -105.674256 52.330730 54.685933 -32.979313 -69.106101 -61.355084 -42.638743 0.000000 0.000000 0.000000 0.000000 0.000000 0.000000 -48.865084 32.206599 28.043301 -108.200378 8.579998 -16.848338 1.312162 3.832798 -40.422171 -9.422751 -1.746155 19.534543 0.000000 0.000000 0.000000 0.000000 0.000000 0.000000 -6.353273 -0.624392 -17.561223 3.285638 1.465171 0.306696 11.661600 -31.319488 -6.176563 0.000000 0.000000 0.000000 -7.058563 1.389556 -17.203850 4.232210 0.036793 0.190014 1.118854 -1.559155 0.651011 0.000000 0.000000 0.000000
-67.393049 81.977047 324.203972 2.561876 -0.515885 16.782490 0.238813 -0.308084 -16.673378 0.066022 -0.073567 0.135989 -9.545591 1.700045 -0.063694 0.000000 0.000000 0.000000 76.537307 59.698263 -48.223626 -136.227488 -50.107825 -96.493273 47.629396 52.173098 -27.126852 -74.584606 -61.956603 -48.103142 0.000000 0.000000 0.000000 0.000000 0.000000 0.000000 -48.655718 32.450737 28.136450 -106.756708 9.252282 -14.852492 0.078361 2.456257 -43.265861 -8.559992 0.169642 22.612917 0.000000 0.000000 0.000000 0.000000 0.000000 0.000000 -6.199809 -0.575630 -17.397552 3.128573 1.449271 0.281355 11.693313 -31.113489 -6.779241 0.000000 0.000000 0.000000 -6.788772 1.642584 -16.996684 3.955927 -0.262477 0.117485 0.858997 -0.432938 0.565447 0.000000 0.000000 0.000000
-67.460147 81.983333 324.199113 2.550457 -0.522135 16.306694 0.224886 -0.288090 -16.198827 0.058087 -0.070248 0.133877 -9.367011 1.502239 -0.150049 0.000000 0.000000 0.000000 76.624175 59.872382 -48.461991 -100.498915 -53.088508 -67.776557 34.582232 42.231985 -12.681414 -88.096928 -62.549779 -61.201523 0.000000 0.000000 0.000000 0.000000 0.000000 0.000000 -48.316539 32.674114 28.163034 -104.770240 10.058694 -12.573783 -1.308644 2.146148 -44.529337 -8.699474 0.602825 24.234116 0.000000 0.000000 0.000000 0.000000 0.000000 0.000000 -6.110402 -0.831164 -16.929835 2.935247 1.579515 0.259747 11.747647 -30.829147 -7.322353 0.000000 0.000000 0.000000 -6.594823 1.689668 -16.482979 3.700769 -0.435412 0.060444 1.425018 -2.171771 0.964783 0.000000 0.000000 0.000000
-67.484337 81.988688 324.076455 2.577675 -0.456593 15.194457 0.207678 -0.300910 -15.087249 0.056105 -0.085174 0.134434 -9.263928 1.106963 -0.330772 0.000000 0.000000 0.000000 76.525009 59.982980 -48.516986 -41.704838 -29.223153 -25.433384 13.805141 12.615854 5.210003 -112.322269 -60.681844 -86.258810 0.000000 0.000000 0.000000 0.000000 0.000000 0.000000 -47.916421 32.894738 28.125711 -102.817226 10.720803 -10.856255 -2.806701 3.851088 -42.707403 -10.775848 -2.317926 21.501608 0.000000 0.000000 0.000000 0.000000 0.000000 0.000000 -6.221249 -1.423847 -15.876140 2.822213 1.977873 0.266673 12.271773 -31.721921 -8.888278 0.000000 0.000000 0.000000 -6.582728 1.586639 -15.356554 3.550075 -0.510852 0.022701 2.852726 -7.482734 2.485244 0.000000 0.000000 0.000000
